<svg xmlns="http://www.w3.org/2000/svg" style="color: blue;">
    <symbol id="check" style="fill: var(--icon-color, currentColor);" viewBox="0 0 24 24">
        <path d="M0 0h24v24H0V0z" fill="none"/><path d="M9 16.17L4.83 12l-1.42 1.41L9 19 21 7l-1.41-1.41L9 16.17z"/>
    </symbol>
    <symbol id="add-shopping-cart" style="fill: var(--icon-color, currentColor);" viewBox="0 0 24 24">
        <path d="M0 0h24v24H0V0z" fill="none"/><path d="M11 9h2V6h3V4h-3V1h-2v3H8v2h3v3zm-4 9c-1.1 0-1.99.9-1.99 2S5.9 22 7 22s2-.9 2-2-.9-2-2-2zm10 0c-1.1 0-1.99.9-1.99 2s.89 2 1.99 2 2-.9 2-2-.9-2-2-2zm-8.9-5h7.45c.75 0 1.41-.41 1.75-1.03l3.86-7.01L19.42 4l-3.87 7H8.53L4.27 2H1v2h2l3.6 7.59-1.35 2.44C4.52 15.37 5.48 17 7 17h12v-2H7l1.1-2z"/>
    </symbol>
    <symbol id="remove-shopping-cart" style="fill: var(--icon-color, currentColor);" viewBox="0 0 24 24">
        <path d="M0 0h24v24H0V0z" fill="none"/><path d="M1.41 1.13L0 2.54l4.39 4.39 2.21 4.66-1.35 2.45c-.16.28-.25.61-.25.96 0 1.1.9 2 2 2h7.46l1.38 1.38c-.5.36-.83.95-.83 1.62 0 1.1.89 2 1.99 2 .67 0 1.26-.33 1.62-.84L21.46 24l1.41-1.41L1.41 1.13zM7 15l1.1-2h2.36l2 2H7zM20 4H7.12l2 2h9.19l-2.76 5h-1.44l1.94 1.94c.54-.14.99-.49 1.25-.97l3.58-6.49C21.25 4.82 20.76 4 20 4zM7 18c-1.1 0-1.99.9-1.99 2S5.9 22 7 22s2-.9 2-2-.9-2-2-2z"/>
    </symbol>
</svg>
