<svg xmlns="http://www.w3.org/2000/svg">
	<symbol id="check" style="fill: var(--icon-color, currentColor);" viewBox="0 0 24 24">
		<path d="M0 0h24v24H0V0z" fill="none" />
		<path d="M9 16.17L4.83 12l-1.42 1.41L9 19 21 7l-1.41-1.41L9 16.17z" />
	</symbol>
	<symbol id="add-shopping-cart" style="fill: var(--icon-color, currentColor);" viewBox="0 0 24 24">
		<path d="M0 0h24v24H0V0z" fill="none" />
		<path d="M11 9h2V6h3V4h-3V1h-2v3H8v2h3v3zm-4 9c-1.1 0-1.99.9-1.99 2S5.9 22 7 22s2-.9 2-2-.9-2-2-2zm10 0c-1.1 0-1.99.9-1.99 2s.89 2 1.99 2 2-.9 2-2-.9-2-2-2zm-8.9-5h7.45c.75 0 1.41-.41 1.75-1.03l3.86-7.01L19.42 4l-3.87 7H8.53L4.27 2H1v2h2l3.6 7.59-1.35 2.44C4.52 15.37 5.48 17 7 17h12v-2H7l1.1-2z" />
	</symbol>
	<symbol id="remove-shopping-cart" style="fill: var(--icon-color, currentColor);" viewBox="0 0 24 24">
		<path d="M0 0h24v24H0V0z" fill="none" />
		<path d="M1.41 1.13L0 2.54l4.39 4.39 2.21 4.66-1.35 2.45c-.16.28-.25.61-.25.96 0 1.1.9 2 2 2h7.46l1.38 1.38c-.5.36-.83.95-.83 1.62 0 1.1.89 2 1.99 2 .67 0 1.26-.33 1.62-.84L21.46 24l1.41-1.41L1.41 1.13zM7 15l1.1-2h2.36l2 2H7zM20 4H7.12l2 2h9.19l-2.76 5h-1.44l1.94 1.94c.54-.14.99-.49 1.25-.97l3.58-6.49C21.25 4.82 20.76 4 20 4zM7 18c-1.1 0-1.99.9-1.99 2S5.9 22 7 22s2-.9 2-2-.9-2-2-2z" />
	</symbol>
	<symbol id="close" style="fill: var(--icon-color, currentColor);" viewBox="0 0 24 24">
		<path d="M0 0h24v24H0V0z" fill="none"/>
		<path d="M19 6.41L17.59 5 12 10.59 6.41 5 5 6.41 10.59 12 5 17.59 6.41 19 12 13.41 17.59 19 19 17.59 13.41 12 19 6.41z"/>
	</symbol>
	<symbol id="filter" style="fill: var(--icon-color, currentColor);" viewBox="0 0 24 24">
		<path d="M0 0h24v24H0V0z" fill="none"/>
		<path d="M10 18h4v-2h-4v2zM3 6v2h18V6H3zm3 7h12v-2H6v2z"/>
	</symbol>
	<symbol id="plus" style="fill: var(--icon-color, currentColor);" viewBox="0 0 24 24">
		<path d="M0 0h24v24H0V0z" fill="none"/>
		<path d="M13 7h-2v4H7v2h4v4h2v-4h4v-2h-4V7zm-1-5C6.48 2 2 6.48 2 12s4.48 10 10 10 10-4.48 10-10S17.52 2 12 2zm0 18c-4.41 0-8-3.59-8-8s3.59-8 8-8 8 3.59 8 8-3.59 8-8 8z"/>
	</symbol>
	<symbol id="cart-icon" style="fill: var(--icon-color, currentColor);" viewBox="0 0 512.002 512.002">
		<path d="M194.59,382.711c-35.646,0-64.646,29-64.646,64.646s29,64.646,64.646,64.646c35.646,0,64.646-29,64.646-64.646
				S230.235,382.711,194.59,382.711z M194.59,473.215c-14.261,0-25.858-11.597-25.858-25.858c0-14.261,11.597-25.858,25.858-25.858
				c14.254,0,25.858,11.597,25.858,25.858C220.448,461.617,208.851,473.215,194.59,473.215z" />
		<path d="M385.941,382.711c-35.646,0-64.646,29-64.646,64.646s29,64.646,64.646,64.646c35.646,0,64.646-29,64.646-64.646
				S421.587,382.711,385.941,382.711z M385.941,473.215c-14.261,0-25.858-11.597-25.858-25.858
				c0-14.261,11.597-25.858,25.858-25.858c14.261,0,25.858,11.597,25.858,25.858C411.799,461.617,400.202,473.215,385.941,473.215z" />
		<path d="M498.088,126.274c-3.685-4.629-9.27-7.324-15.179-7.324H143.326l-17.629-89.095c-1.545-7.803-7.699-13.873-15.528-15.308
				L32.594,0.325C22.038-1.621,11.953,5.368,10.02,15.905s5.042,20.641,15.58,22.574l64.607,11.843l56.914,287.667
				c1.797,9.083,9.768,15.631,19.025,15.631h271.512c9.031,0,16.86-6.225,18.896-15.037l45.252-195.876
				C503.137,136.947,501.767,130.896,498.088,126.274z M422.233,314.833H182.074l-31.075-157.089h307.519L422.233,314.833z" />
	</symbol>
</svg>
